<?xml version="1.0" encoding="utf-8"?>
<!-- Generator: Adobe Illustrator 24.0.0, SVG Export Plug-In . SVG Version: 6.00 Build 0)  -->
<svg version="1.1" id="Layer_1" xmlns="http://www.w3.org/2000/svg" xmlns:xlink="http://www.w3.org/1999/xlink" x="0px" y="0px"
	 viewBox="0 0 170 40" style="enable-background:new 0 0 170 40;" xml:space="preserve">
<style type="text/css">
	.st0{fill:#ED6B06;}
	.st1{fill:#74AF27;}
	.st2{fill:#005781;}
	.st3{fill:#00537F;}
	.st4{fill:#045380;}
</style>
<g>
	<path class="st0" d="M84.9,7.5h5.8c1.5,0,2.8,0.1,3.9,0.4c1.1,0.3,2.1,0.8,3,1.6c2.3,2,3.4,5,3.4,9c0,1.3-0.1,2.5-0.3,3.6
		c-0.2,1.1-0.6,2.1-1.1,3c-0.5,0.9-1.1,1.7-1.9,2.4c-0.6,0.5-1.2,1-1.9,1.3c-0.7,0.3-1.5,0.5-2.3,0.7c-0.8,0.1-1.7,0.2-2.7,0.2H85
		c-0.8,0-1.4-0.1-1.8-0.4c-0.4-0.2-0.7-0.6-0.8-1c-0.1-0.4-0.2-1-0.2-1.7V10.3c0-1,0.2-1.7,0.6-2.1C83.2,7.8,83.9,7.5,84.9,7.5
		 M86.6,11.1v15H90c0.7,0,1.3,0,1.7-0.1c0.4,0,0.9-0.1,1.3-0.3c0.5-0.2,0.8-0.4,1.2-0.7c1.5-1.3,2.2-3.4,2.2-6.5
		c0-2.2-0.3-3.8-1-4.9c-0.7-1.1-1.5-1.8-2.4-2.1c-1-0.3-2.1-0.4-3.5-0.4H86.6z"/>
	<path class="st1" d="M123.8,22.7c0,0.7-0.2,1.5-0.5,2.3c-0.3,0.8-0.9,1.6-1.6,2.4c-0.7,0.8-1.7,1.4-2.8,1.9c-1.2,0.5-2.5,0.7-4,0.7
		c-1.2,0-2.2-0.1-3.2-0.3c-1-0.2-1.8-0.6-2.6-1c-0.8-0.5-1.5-1.1-2.1-1.8c-0.6-0.7-1.1-1.5-1.5-2.3c-0.4-0.9-0.7-1.8-0.9-2.7
		c-0.2-1-0.3-2-0.3-3.1c0-1.8,0.3-3.4,0.8-4.8c0.5-1.4,1.3-2.6,2.2-3.6c1-1,2.1-1.8,3.4-2.3c1.3-0.5,2.7-0.8,4.1-0.8
		c1.8,0,3.4,0.4,4.8,1.1c1.4,0.7,2.5,1.6,3.2,2.6c0.7,1,1.1,2,1.1,3c0,0.5-0.2,1-0.5,1.4c-0.4,0.4-0.8,0.6-1.3,0.6
		c-0.6,0-1-0.1-1.3-0.4c-0.3-0.3-0.6-0.7-1-1.4c-0.6-1.1-1.3-1.9-2.1-2.5c-0.8-0.5-1.8-0.8-2.9-0.8c-1.8,0-3.3,0.7-4.4,2.1
		c-1.1,1.4-1.6,3.4-1.6,5.9c0,1.7,0.2,3.1,0.7,4.3c0.5,1.1,1.2,2,2,2.6c0.9,0.6,1.9,0.8,3.1,0.8c1.3,0,2.4-0.3,3.3-1
		c0.9-0.6,1.6-1.6,2-2.8c0.2-0.6,0.4-1.1,0.7-1.4c0.3-0.4,0.7-0.5,1.4-0.5c0.5,0,1,0.2,1.4,0.6C123.6,21.6,123.8,22.1,123.8,22.7"/>
	<path class="st2" d="M141.9,27.1l-1.1-2.8h-9l-1.1,2.8c-0.4,1.1-0.8,1.9-1.1,2.2c-0.3,0.4-0.8,0.6-1.4,0.6c-0.6,0-1.1-0.2-1.5-0.6
		c-0.4-0.4-0.6-0.9-0.6-1.4c0-0.3,0-0.6,0.2-0.9c0.1-0.3,0.3-0.8,0.5-1.3l5.6-14.3c0.2-0.4,0.4-0.9,0.6-1.5c0.2-0.6,0.5-1.1,0.7-1.4
		c0.3-0.4,0.6-0.7,1-0.9c0.4-0.2,0.9-0.4,1.5-0.4c0.6,0,1.1,0.1,1.6,0.4c0.4,0.2,0.8,0.5,1,0.9c0.3,0.4,0.5,0.8,0.6,1.2
		c0.2,0.4,0.4,1,0.7,1.7l5.8,14.2c0.5,1.1,0.7,1.9,0.7,2.4c0,0.5-0.2,1-0.6,1.4c-0.4,0.4-0.9,0.6-1.5,0.6c-0.4,0-0.7-0.1-0.9-0.2
		c-0.3-0.1-0.5-0.3-0.6-0.5c-0.2-0.2-0.4-0.5-0.5-1C142.2,27.9,142.1,27.5,141.9,27.1 M133.1,21h6.6l-3.3-9.1L133.1,21z"/>
	<path class="st0" d="M166.8,23c0,1.3-0.3,2.5-1,3.6c-0.7,1.1-1.7,1.9-3,2.5c-1.3,0.6-2.9,0.9-4.7,0.9c-2.2,0-4-0.4-5.4-1.2
		c-1-0.6-1.8-1.4-2.4-2.4c-0.6-1-0.9-2-0.9-2.9c0-0.5,0.2-1,0.6-1.4c0.4-0.4,0.9-0.6,1.4-0.6c0.5,0,0.9,0.2,1.2,0.5
		c0.3,0.3,0.6,0.7,0.8,1.3c0.3,0.7,0.6,1.3,0.9,1.8c0.3,0.5,0.8,0.9,1.4,1.2c0.6,0.3,1.4,0.5,2.3,0.5c1.3,0,2.4-0.3,3.2-0.9
		s1.2-1.4,1.2-2.3c0-0.7-0.2-1.3-0.7-1.8c-0.4-0.5-1-0.8-1.7-1c-0.7-0.2-1.7-0.5-2.8-0.8c-1.6-0.4-2.9-0.8-4-1.3
		c-1.1-0.5-1.9-1.2-2.5-2c-0.6-0.9-0.9-1.9-0.9-3.2c0-1.2,0.3-2.3,1-3.2c0.7-0.9,1.6-1.7,2.9-2.2c1.3-0.5,2.7-0.8,4.4-0.8
		c1.4,0,2.5,0.2,3.5,0.5c1,0.3,1.8,0.8,2.5,1.3c0.7,0.6,1.1,1.1,1.4,1.8c0.3,0.6,0.5,1.2,0.5,1.8c0,0.5-0.2,1-0.6,1.4
		c-0.4,0.4-0.8,0.6-1.4,0.6c-0.5,0-0.9-0.1-1.2-0.4c-0.3-0.3-0.6-0.7-0.9-1.3c-0.4-0.8-0.9-1.5-1.4-2c-0.6-0.5-1.5-0.7-2.7-0.7
		c-1.2,0-2.1,0.3-2.8,0.8c-0.7,0.5-1.1,1.1-1.1,1.8c0,0.4,0.1,0.8,0.4,1.1c0.2,0.3,0.6,0.6,1,0.8c0.4,0.2,0.8,0.4,1.3,0.5
		c0.4,0.1,1.1,0.3,2.1,0.6c1.2,0.3,2.4,0.6,3.4,1c1,0.4,1.9,0.8,2.6,1.3c0.7,0.5,1.3,1.1,1.7,1.9C166.6,20.9,166.8,21.9,166.8,23"/>
	<path class="st3" d="M166.7,7.2c-1.8,0-3.3-1.4-3.3-3.2c0-1.7,1.5-3.2,3.3-3.2c1.8,0,3.3,1.4,3.3,3.2C170,5.8,168.5,7.2,166.7,7.2z
		 M166.7,1.6c-1.4,0-2.5,1.1-2.5,2.4c0,1.3,1.1,2.4,2.5,2.4c1.4,0,2.5-1.1,2.5-2.4C169.3,2.7,168.1,1.6,166.7,1.6z"/>
	<path class="st3" d="M166.4,4.3h-0.2v0.9c0,0.1,0,0.2-0.1,0.3c-0.1,0.1-0.1,0.1-0.2,0.1c-0.1,0-0.2,0-0.2-0.1
		c0-0.1-0.1-0.1-0.1-0.3V3c0-0.1,0-0.2,0.1-0.3c0.1-0.1,0.1-0.1,0.3-0.1h0.9c0.1,0,0.2,0,0.3,0c0.1,0,0.2,0,0.2,0.1
		c0.1,0,0.2,0.1,0.2,0.2c0.1,0.1,0.1,0.1,0.2,0.2c0,0.1,0.1,0.2,0.1,0.3c0,0.2-0.1,0.4-0.2,0.5c-0.1,0.1-0.3,0.2-0.5,0.3
		c0.1,0.1,0.2,0.1,0.3,0.2c0.1,0.1,0.2,0.2,0.2,0.3c0.1,0.1,0.1,0.2,0.2,0.3c0,0.1,0.1,0.2,0.1,0.2c0,0,0,0.1,0,0.1
		c0,0-0.1,0.1-0.1,0.1c0,0-0.1,0-0.1,0c-0.1,0-0.1,0-0.2,0c0,0-0.1-0.1-0.1-0.1c0,0-0.1-0.1-0.1-0.2l-0.2-0.4
		c-0.1-0.1-0.2-0.2-0.2-0.3c-0.1-0.1-0.1-0.1-0.2-0.1C166.6,4.3,166.5,4.3,166.4,4.3 M166.7,3.1h-0.5v0.8h0.5c0.1,0,0.2,0,0.3,0
		c0.1,0,0.2-0.1,0.2-0.1c0-0.1,0.1-0.1,0.1-0.2c0-0.1,0-0.1-0.1-0.2c0-0.1-0.1-0.1-0.2-0.1C167.1,3.1,166.9,3.1,166.7,3.1"/>
	<path class="st2" d="M2.6,8.4h0.6V5.1c0-0.9,0-1.6,0.1-2.1c0-0.5,0.2-0.9,0.4-1.3C3.8,1.3,4.1,1,4.5,0.8c0.4-0.2,0.9-0.4,1.3-0.4
		c0.7,0,1.3,0.3,1.9,0.8C8.1,1.6,8.4,2,8.5,2.5C8.6,3,8.6,3.7,8.6,4.6v3.7h2c0.8,0,1.4,0.2,1.8,0.6c0.4,0.4,0.6,0.8,0.6,1.4
		c0,0.7-0.3,1.3-0.9,1.5c-0.6,0.3-1.4,0.4-2.5,0.4h-1v10.1c0,0.9,0,1.5,0.1,2c0.1,0.5,0.2,0.8,0.5,1.1c0.3,0.3,0.7,0.4,1.3,0.4
		c0.3,0,0.8-0.1,1.3-0.2c0.5-0.1,1-0.2,1.3-0.2c0.4,0,0.8,0.2,1.2,0.5c0.4,0.4,0.5,0.8,0.5,1.3c0,0.9-0.5,1.6-1.4,2
		c-1,0.5-2.3,0.7-4.2,0.7c-1.7,0-3-0.3-3.9-0.9c-0.9-0.6-1.5-1.4-1.7-2.4c-0.3-1-0.4-2.4-0.4-4.1V12.3H2.4c-0.8,0-1.4-0.2-1.8-0.6
		C0.2,11.4,0,10.9,0,10.3c0-0.6,0.2-1,0.7-1.4C1.1,8.5,1.7,8.4,2.6,8.4"/>
	<path class="st2" d="M22.3,22.3v4.6c0,1.1-0.3,1.9-0.8,2.5c-0.5,0.6-1.2,0.8-2,0.8c-0.8,0-1.4-0.3-1.9-0.8
		c-0.5-0.6-0.8-1.4-0.8-2.5V11.6c0-2.5,0.9-3.7,2.7-3.7c0.9,0,1.6,0.3,2,0.9c0.4,0.6,0.6,1.4,0.7,2.6c0.7-1.1,1.3-2,2-2.6
		c0.7-0.6,1.6-0.9,2.8-0.9c1.2,0,2.3,0.3,3.4,0.9c1.1,0.6,1.6,1.3,1.6,2.3c0,0.7-0.2,1.2-0.7,1.7c-0.5,0.4-1,0.7-1.5,0.7
		c-0.2,0-0.7-0.1-1.5-0.4c-0.8-0.2-1.4-0.4-2-0.4c-0.8,0-1.5,0.2-2,0.6c-0.5,0.4-0.9,1-1.2,1.9c-0.3,0.8-0.5,1.8-0.6,3
		C22.3,19.2,22.3,20.6,22.3,22.3"/>
	<path class="st2" d="M49.1,20.4H38.4c0,1.2,0.3,2.3,0.8,3.3c0.5,1,1.1,1.7,1.9,2.1c0.8,0.5,1.7,0.7,2.7,0.7c0.7,0,1.3-0.1,1.8-0.2
		c0.5-0.2,1.1-0.4,1.6-0.7c0.5-0.3,1-0.7,1.4-1.1c0.4-0.4,1-0.9,1.7-1.5c0.3-0.2,0.7-0.4,1.2-0.4c0.6,0,1,0.2,1.4,0.5
		c0.3,0.3,0.5,0.7,0.5,1.3c0,0.5-0.2,1.1-0.6,1.7c-0.4,0.7-1,1.3-1.8,1.9c-0.8,0.6-1.8,1.1-3,1.5c-1.2,0.4-2.5,0.6-4.1,0.6
		c-3.5,0-6.3-1-8.2-3c-2-2-2.9-4.7-2.9-8.2c0-1.6,0.2-3.1,0.7-4.5c0.5-1.4,1.2-2.6,2.1-3.6c0.9-1,2.1-1.8,3.4-2.3
		c1.4-0.5,2.9-0.8,4.5-0.8c2.1,0,4,0.5,5.5,1.4c1.5,0.9,2.7,2.1,3.4,3.5c0.8,1.4,1.1,2.9,1.1,4.4c0,1.4-0.4,2.3-1.2,2.7
		C51.6,20.2,50.5,20.4,49.1,20.4 M38.4,17.3h9.9c-0.1-1.9-0.6-3.3-1.5-4.2c-0.9-0.9-2-1.4-3.5-1.4c-1.4,0-2.5,0.5-3.4,1.4
		C39.1,14,38.6,15.4,38.4,17.3"/>
	<path class="st1" d="M69.6,27.9l-4-5.8l-4.1,5.8c-0.6,0.8-1.1,1.4-1.5,1.7c-0.4,0.3-0.9,0.5-1.6,0.5c-0.7,0-1.3-0.2-1.8-0.7
		C56.2,29.1,56,28.6,56,28c0-0.6,0.4-1.4,1.1-2.5l5-7.1l-4.4-5.9c-0.8-1-1.1-1.8-1.1-2.6c0-0.6,0.2-1.1,0.7-1.5
		c0.5-0.4,1.1-0.6,1.8-0.6c0.6,0,1.2,0.2,1.6,0.5c0.4,0.4,0.9,0.9,1.5,1.7l3.6,4.9l3.5-4.9c0.6-0.8,1.1-1.4,1.5-1.7
		C71,8,71.5,7.9,72.1,7.9c0.7,0,1.3,0.2,1.8,0.6c0.5,0.4,0.7,0.9,0.7,1.5c0,0.4-0.1,0.8-0.3,1.2c-0.2,0.4-0.5,0.8-0.9,1.4l-4.4,5.9
		l5,7.1c0.8,1.1,1.2,1.9,1.2,2.5c0,0.6-0.2,1.1-0.7,1.5c-0.5,0.4-1.1,0.6-1.8,0.6c-0.6,0-1.2-0.2-1.6-0.5
		C70.7,29.3,70.2,28.7,69.6,27.9"/>
	<path class="st3" d="M75.4,6.8c-1.8,0-3.3-1.4-3.3-3.2c0-1.7,1.5-3.2,3.3-3.2c1.8,0,3.3,1.4,3.3,3.2C78.6,5.4,77.1,6.8,75.4,6.8z
		 M75.4,1.2c-1.4,0-2.5,1.1-2.5,2.4c0,1.3,1.1,2.4,2.5,2.4s2.5-1.1,2.5-2.4C77.9,2.3,76.7,1.2,75.4,1.2z"/>
	<path class="st3" d="M75,3.8h-0.2v0.9c0,0.1,0,0.2-0.1,0.3C74.7,5,74.6,5,74.5,5c-0.1,0-0.2,0-0.2-0.1c0-0.1-0.1-0.1-0.1-0.3V2.6
		c0-0.1,0-0.2,0.1-0.3c0.1-0.1,0.1-0.1,0.3-0.1h0.9c0.1,0,0.2,0,0.3,0c0.1,0,0.2,0,0.2,0.1c0.1,0,0.2,0.1,0.2,0.2
		c0.1,0.1,0.1,0.1,0.2,0.2c0,0.1,0.1,0.2,0.1,0.3c0,0.2-0.1,0.4-0.2,0.5c-0.1,0.1-0.3,0.2-0.5,0.3C75.9,3.8,76,3.9,76.1,4
		c0.1,0.1,0.2,0.2,0.2,0.3c0.1,0.1,0.1,0.2,0.2,0.3c0,0.1,0.1,0.2,0.1,0.2c0,0,0,0.1,0,0.1c0,0-0.1,0.1-0.1,0.1c0,0-0.1,0-0.1,0
		c-0.1,0-0.1,0-0.2,0c0,0-0.1-0.1-0.1-0.1c0,0-0.1-0.1-0.1-0.2l-0.2-0.4c-0.1-0.1-0.2-0.2-0.2-0.3c-0.1-0.1-0.1-0.1-0.2-0.1
		C75.2,3.8,75.1,3.8,75,3.8 M75.3,2.7h-0.5v0.8h0.5c0.1,0,0.2,0,0.3,0c0.1,0,0.2-0.1,0.2-0.1c0-0.1,0.1-0.1,0.1-0.2
		c0-0.1,0-0.1-0.1-0.2c0-0.1-0.1-0.1-0.2-0.1C75.7,2.7,75.5,2.7,75.3,2.7"/>
	<path class="st4" d="M3,36.3H2.1v1.4c0,0.2,0,0.3-0.1,0.4c-0.1,0.1-0.2,0.2-0.4,0.2c-0.1,0-0.3-0.1-0.4-0.2
		c-0.1-0.1-0.1-0.2-0.1-0.4v-3.7c0-0.2,0-0.4,0.1-0.5c0.1-0.1,0.3-0.1,0.5-0.1H3c0.4,0,0.7,0,0.9,0.1c0.2,0.1,0.4,0.1,0.5,0.3
		c0.1,0.1,0.3,0.3,0.3,0.5c0.1,0.2,0.1,0.4,0.1,0.6c0,0.5-0.2,0.9-0.5,1.1C4.1,36.1,3.6,36.3,3,36.3 M2.8,34H2.1v1.5h0.7
		c0.2,0,0.4,0,0.6-0.1c0.2,0,0.3-0.1,0.4-0.2c0.1-0.1,0.1-0.3,0.1-0.4c0-0.2-0.1-0.4-0.2-0.5C3.5,34.1,3.2,34,2.8,34"/>
	<path class="st4" d="M6.5,36.9v0.8c0,0.2,0,0.3-0.1,0.4c-0.1,0.1-0.2,0.1-0.3,0.1c-0.1,0-0.2,0-0.3-0.1c-0.1-0.1-0.1-0.2-0.1-0.4
		v-2.5c0-0.4,0.1-0.6,0.4-0.6c0.2,0,0.3,0,0.3,0.1c0.1,0.1,0.1,0.2,0.1,0.4c0.1-0.2,0.2-0.3,0.3-0.4c0.1-0.1,0.3-0.1,0.5-0.1
		c0.2,0,0.4,0,0.6,0.1c0.2,0.1,0.3,0.2,0.3,0.4c0,0.1,0,0.2-0.1,0.3c-0.1,0.1-0.2,0.1-0.2,0.1c0,0-0.1,0-0.2-0.1
		c-0.1,0-0.2-0.1-0.3-0.1c-0.1,0-0.2,0-0.3,0.1c-0.1,0.1-0.1,0.2-0.2,0.3c0,0.1-0.1,0.3-0.1,0.5C6.5,36.4,6.5,36.7,6.5,36.9"/>
	<path class="st4" d="M11.7,36.4c0,0.3,0,0.5-0.1,0.7c-0.1,0.2-0.2,0.4-0.4,0.6c-0.2,0.2-0.3,0.3-0.6,0.4c-0.2,0.1-0.5,0.1-0.7,0.1
		c-0.3,0-0.5,0-0.7-0.1C9,38,8.8,37.9,8.6,37.7c-0.2-0.2-0.3-0.4-0.4-0.6c-0.1-0.2-0.1-0.5-0.1-0.7c0-0.3,0-0.5,0.1-0.8
		c0.1-0.2,0.2-0.4,0.4-0.6c0.2-0.2,0.3-0.3,0.6-0.4c0.2-0.1,0.5-0.1,0.7-0.1c0.3,0,0.5,0,0.7,0.1c0.2,0.1,0.4,0.2,0.6,0.4
		c0.2,0.2,0.3,0.4,0.4,0.6C11.7,35.9,11.7,36.1,11.7,36.4 M10.8,36.4c0-0.4-0.1-0.7-0.2-0.9c-0.2-0.2-0.4-0.3-0.7-0.3
		c-0.2,0-0.3,0-0.5,0.1c-0.1,0.1-0.2,0.2-0.3,0.4C9.1,36,9,36.2,9,36.4c0,0.2,0,0.4,0.1,0.6c0.1,0.2,0.2,0.3,0.3,0.4
		c0.1,0.1,0.3,0.1,0.5,0.1c0.3,0,0.5-0.1,0.7-0.3C10.7,37,10.8,36.8,10.8,36.4"/>
	<path class="st4" d="M14.9,37.7L14.9,37.7c-0.1,0-0.2,0.2-0.4,0.3c-0.1,0.1-0.2,0.2-0.4,0.2c-0.1,0-0.3,0.1-0.5,0.1
		c-0.2,0-0.4,0-0.6-0.1c-0.2-0.1-0.3-0.2-0.5-0.4c-0.1-0.2-0.2-0.4-0.3-0.6c-0.1-0.2-0.1-0.5-0.1-0.7c0-0.6,0.1-1,0.4-1.3
		c0.3-0.3,0.6-0.5,1.1-0.5c0.3,0,0.5,0,0.7,0.1c0.2,0.1,0.4,0.2,0.5,0.4v-1.3c0-0.2,0-0.3,0.1-0.4c0.1-0.1,0.2-0.1,0.3-0.1
		c0.1,0,0.2,0,0.3,0.1c0.1,0.1,0.1,0.2,0.1,0.4v4c0,0.2,0,0.3-0.1,0.4c-0.1,0.1-0.2,0.1-0.3,0.1c-0.1,0-0.2,0-0.3-0.1
		C15,38,14.9,37.9,14.9,37.7 M13.1,36.4c0,0.2,0,0.5,0.1,0.6c0.1,0.2,0.2,0.3,0.3,0.4c0.1,0.1,0.3,0.1,0.4,0.1c0.2,0,0.3,0,0.4-0.1
		c0.1-0.1,0.2-0.2,0.3-0.4c0.1-0.2,0.1-0.4,0.1-0.6c0-0.2,0-0.4-0.1-0.6c-0.1-0.2-0.2-0.3-0.3-0.4c-0.1-0.1-0.3-0.1-0.4-0.1
		c-0.2,0-0.3,0-0.4,0.1c-0.1,0.1-0.2,0.2-0.3,0.4C13.2,36,13.1,36.2,13.1,36.4"/>
	<path class="st4" d="M19,37.7v-0.1c-0.1,0.1-0.2,0.3-0.3,0.3c-0.1,0.1-0.2,0.2-0.4,0.2c-0.1,0-0.3,0.1-0.5,0.1
		c-0.2,0-0.4,0-0.6-0.1c-0.2-0.1-0.3-0.2-0.4-0.4c-0.1-0.2-0.2-0.5-0.2-0.8v-1.8c0-0.2,0-0.3,0.1-0.4c0.1-0.1,0.2-0.1,0.3-0.1
		c0.1,0,0.2,0,0.3,0.1c0.1,0.1,0.1,0.2,0.1,0.4v1.4c0,0.2,0,0.4,0.1,0.5c0,0.1,0.1,0.3,0.2,0.3c0.1,0.1,0.2,0.1,0.4,0.1
		c0.2,0,0.3,0,0.4-0.1c0.1-0.1,0.2-0.2,0.3-0.4c0.1-0.1,0.1-0.4,0.1-0.8v-1.1c0-0.2,0-0.3,0.1-0.4c0.1-0.1,0.2-0.1,0.3-0.1
		c0.1,0,0.2,0,0.3,0.1c0.1,0.1,0.1,0.2,0.1,0.4v2.6c0,0.2,0,0.3-0.1,0.4c-0.1,0.1-0.2,0.1-0.3,0.1s-0.2,0-0.3-0.1
		C19.1,38,19,37.9,19,37.7"/>
	<path class="st4" d="M24,37.1c0,0.1,0,0.2-0.1,0.4c-0.1,0.1-0.2,0.3-0.3,0.4c-0.1,0.1-0.3,0.2-0.5,0.3c-0.2,0.1-0.4,0.1-0.7,0.1
		c-0.6,0-1-0.2-1.3-0.5c-0.3-0.3-0.5-0.8-0.5-1.3c0-0.4,0.1-0.7,0.2-1c0.1-0.3,0.4-0.5,0.6-0.7c0.3-0.2,0.6-0.2,1-0.2
		c0.2,0,0.4,0,0.6,0.1c0.2,0.1,0.4,0.2,0.5,0.3c0.1,0.1,0.2,0.2,0.3,0.3c0.1,0.1,0.1,0.2,0.1,0.3c0,0.1,0,0.2-0.1,0.3
		C23.8,36,23.7,36,23.6,36c-0.1,0-0.1,0-0.2-0.1c0,0-0.1-0.1-0.2-0.2c-0.1-0.2-0.2-0.3-0.3-0.4c-0.1-0.1-0.3-0.1-0.5-0.1
		c-0.3,0-0.5,0.1-0.6,0.3c-0.2,0.2-0.2,0.5-0.2,0.9c0,0.2,0,0.3,0.1,0.5c0,0.1,0.1,0.3,0.2,0.4c0.1,0.1,0.2,0.2,0.3,0.2
		c0.1,0.1,0.2,0.1,0.4,0.1c0.2,0,0.3,0,0.5-0.1c0.1-0.1,0.2-0.2,0.3-0.4c0.1-0.1,0.1-0.2,0.2-0.2c0.1-0.1,0.1-0.1,0.2-0.1
		c0.1,0,0.2,0,0.3,0.1C24,36.9,24,37,24,37.1"/>
	<path class="st4" d="M24.9,34.6L24.9,34.6l0.1-0.5c0-0.1,0-0.3,0-0.3c0-0.1,0-0.2,0.1-0.2c0-0.1,0.1-0.1,0.2-0.2
		c0.1,0,0.1-0.1,0.2-0.1c0.1,0,0.2,0,0.3,0.1c0.1,0.1,0.1,0.1,0.1,0.2c0,0.1,0,0.2,0,0.4v0.6h0.3c0.1,0,0.2,0,0.3,0.1
		c0.1,0.1,0.1,0.1,0.1,0.2c0,0.1,0,0.2-0.1,0.3c-0.1,0-0.2,0.1-0.4,0.1h-0.2V37c0,0.1,0,0.3,0,0.3c0,0.1,0,0.1,0.1,0.2
		c0,0,0.1,0.1,0.2,0.1c0.1,0,0.1,0,0.2,0c0.1,0,0.2,0,0.2,0c0.1,0,0.1,0,0.2,0.1s0.1,0.1,0.1,0.2c0,0.1-0.1,0.3-0.2,0.3
		c-0.2,0.1-0.4,0.1-0.7,0.1c-0.3,0-0.5,0-0.6-0.1c-0.1-0.1-0.2-0.2-0.3-0.4c0-0.2-0.1-0.4-0.1-0.7v-1.7h-0.1c-0.1,0-0.2,0-0.3-0.1
		c-0.1-0.1-0.1-0.1-0.1-0.2c0-0.1,0-0.2,0.1-0.2C24.6,34.7,24.7,34.6,24.9,34.6"/>
	<path class="st4" d="M27.7,34.1c-0.1,0-0.2,0-0.3-0.1c-0.1-0.1-0.1-0.2-0.1-0.3c0-0.1,0-0.2,0.1-0.3c0.1-0.1,0.2-0.1,0.3-0.1
		c0.1,0,0.2,0,0.3,0.1c0.1,0.1,0.1,0.2,0.1,0.3c0,0.1,0,0.2-0.1,0.3C27.9,34.1,27.8,34.1,27.7,34.1 M28.1,35.1v2.6
		c0,0.2,0,0.3-0.1,0.4c-0.1,0.1-0.2,0.1-0.3,0.1c-0.1,0-0.2,0-0.3-0.1c-0.1-0.1-0.1-0.2-0.1-0.4v-2.6c0-0.2,0-0.3,0.1-0.4
		c0.1-0.1,0.2-0.1,0.3-0.1c0.1,0,0.2,0,0.3,0.1C28.1,34.8,28.1,34.9,28.1,35.1"/>
	<path class="st4" d="M29.7,35.1l0.7,2.1l0.8-2.1c0.1-0.2,0.1-0.3,0.2-0.4c0.1-0.1,0.2-0.1,0.3-0.1c0.1,0,0.2,0,0.3,0.1
		c0.1,0.1,0.1,0.2,0.1,0.3c0,0,0,0.1,0,0.1c0,0.1,0,0.1,0,0.1c0,0,0,0.1-0.1,0.2l-0.9,2.2c0,0.1-0.1,0.1-0.1,0.2
		c0,0.1-0.1,0.2-0.1,0.2c0,0.1-0.1,0.1-0.2,0.2c-0.1,0-0.2,0.1-0.3,0.1c-0.1,0-0.2,0-0.3-0.1C30,38.1,30,38,29.9,38
		c0-0.1-0.1-0.2-0.2-0.4l-0.9-2.1c0-0.1,0-0.1-0.1-0.2c0-0.1,0-0.1-0.1-0.2c0-0.1,0-0.1,0-0.1c0-0.1,0-0.1,0.1-0.2
		c0-0.1,0.1-0.1,0.2-0.1c0.1,0,0.1-0.1,0.2-0.1c0.2,0,0.3,0,0.3,0.1C29.6,34.8,29.6,34.9,29.7,35.1"/>
	<path class="st4" d="M33.2,34.1c-0.1,0-0.2,0-0.3-0.1c-0.1-0.1-0.1-0.2-0.1-0.3c0-0.1,0-0.2,0.1-0.3c0.1-0.1,0.2-0.1,0.3-0.1
		c0.1,0,0.2,0,0.3,0.1c0.1,0.1,0.1,0.2,0.1,0.3c0,0.1,0,0.2-0.1,0.3C33.4,34.1,33.3,34.1,33.2,34.1 M33.6,35.1v2.6
		c0,0.2,0,0.3-0.1,0.4c-0.1,0.1-0.2,0.1-0.3,0.1s-0.2,0-0.3-0.1c-0.1-0.1-0.1-0.2-0.1-0.4v-2.6c0-0.2,0-0.3,0.1-0.4
		c0.1-0.1,0.2-0.1,0.3-0.1s0.2,0,0.3,0.1S33.6,34.9,33.6,35.1"/>
	<path class="st4" d="M34.6,34.6L34.6,34.6l0.1-0.5c0-0.1,0-0.3,0-0.3c0-0.1,0-0.2,0.1-0.2c0-0.1,0.1-0.1,0.2-0.2
		c0.1,0,0.1-0.1,0.2-0.1c0.1,0,0.2,0,0.3,0.1c0.1,0.1,0.1,0.1,0.1,0.2c0,0.1,0,0.2,0,0.4v0.6H36c0.1,0,0.2,0,0.3,0.1
		c0.1,0.1,0.1,0.1,0.1,0.2c0,0.1,0,0.2-0.1,0.3c-0.1,0-0.2,0.1-0.4,0.1h-0.2V37c0,0.1,0,0.3,0,0.3c0,0.1,0,0.1,0.1,0.2
		c0,0,0.1,0.1,0.2,0.1c0.1,0,0.1,0,0.2,0c0.1,0,0.2,0,0.2,0c0.1,0,0.1,0,0.2,0.1s0.1,0.1,0.1,0.2c0,0.1-0.1,0.3-0.2,0.3
		c-0.2,0.1-0.4,0.1-0.7,0.1c-0.3,0-0.5,0-0.6-0.1c-0.1-0.1-0.2-0.2-0.3-0.4c0-0.2-0.1-0.4-0.1-0.7v-1.7h-0.1c-0.1,0-0.2,0-0.3-0.1
		c-0.1-0.1-0.1-0.1-0.1-0.2c0-0.1,0-0.2,0.1-0.2C34.4,34.7,34.5,34.6,34.6,34.6"/>
	<path class="st4" d="M37.8,38.4l0.1-0.2l-1.1-2.8c-0.1-0.2-0.1-0.3-0.1-0.4c0-0.1,0-0.1,0.1-0.2c0-0.1,0.1-0.1,0.2-0.2
		c0.1,0,0.1-0.1,0.2-0.1c0.1,0,0.2,0,0.3,0.1c0.1,0.1,0.1,0.2,0.2,0.4l0.8,2.2l0.7-2.1c0.1-0.2,0.1-0.3,0.2-0.4
		c0-0.1,0.1-0.2,0.1-0.2c0.1,0,0.1,0,0.2,0c0.1,0,0.1,0,0.2,0.1c0.1,0,0.1,0.1,0.1,0.1c0,0.1,0.1,0.1,0.1,0.2c0,0,0,0.1,0,0.2
		c0,0.1,0,0.2-0.1,0.2l-1.2,3.1c-0.1,0.3-0.2,0.5-0.3,0.6c-0.1,0.2-0.2,0.3-0.4,0.4c-0.2,0.1-0.4,0.1-0.6,0.1c-0.3,0-0.5,0-0.6-0.1
		c-0.1-0.1-0.2-0.2-0.2-0.3c0-0.1,0-0.2,0.1-0.2c0.1-0.1,0.2-0.1,0.3-0.1c0,0,0.1,0,0.1,0c0.1,0,0.1,0,0.1,0c0.1,0,0.2,0,0.2,0
		c0.1,0,0.1-0.1,0.2-0.2C37.7,38.6,37.7,38.5,37.8,38.4"/>
	<path class="st4" d="M42.9,34.3c0-0.2,0.1-0.4,0.2-0.6c0.1-0.2,0.3-0.3,0.5-0.4c0.2-0.1,0.5-0.1,0.7-0.1c0.3,0,0.5,0.1,0.7,0.2
		c0.2,0.1,0.4,0.2,0.5,0.4c0.1,0.2,0.2,0.3,0.2,0.5c0,0.2-0.1,0.5-0.2,0.6c-0.2,0.2-0.4,0.4-0.7,0.6c0.1,0.1,0.2,0.3,0.3,0.4
		c0.1,0.1,0.2,0.2,0.3,0.3c0.1,0.1,0.2,0.2,0.2,0.3c0-0.1,0.1-0.2,0.2-0.3c0.1-0.2,0.1-0.3,0.2-0.4c0.1-0.1,0.1-0.1,0.3-0.1
		c0.1,0,0.2,0,0.3,0.1c0.1,0.1,0.1,0.2,0.1,0.3c0,0.1,0,0.2-0.1,0.4c-0.1,0.2-0.2,0.4-0.3,0.6c0.1,0.1,0.2,0.2,0.4,0.3
		c0.2,0.1,0.3,0.2,0.3,0.3c0,0.1,0.1,0.1,0.1,0.2c0,0.1,0,0.2-0.1,0.3c-0.1,0.1-0.2,0.1-0.3,0.1c-0.1,0-0.2,0-0.3-0.1
		c-0.1-0.1-0.3-0.2-0.6-0.5c-0.1,0.1-0.3,0.2-0.4,0.3c-0.2,0.1-0.3,0.2-0.5,0.2c-0.2,0-0.4,0.1-0.6,0.1c-0.3,0-0.5,0-0.7-0.1
		c-0.2-0.1-0.4-0.2-0.5-0.3c-0.1-0.1-0.3-0.3-0.3-0.5c-0.1-0.2-0.1-0.3-0.1-0.5c0-0.2,0-0.3,0.1-0.5c0.1-0.1,0.1-0.3,0.2-0.4
		c0.1-0.1,0.2-0.2,0.4-0.3c0.1-0.1,0.3-0.2,0.5-0.3c-0.2-0.2-0.3-0.4-0.4-0.6C43,34.7,42.9,34.5,42.9,34.3 M43.9,35.9
		c-0.2,0.1-0.4,0.3-0.5,0.4c-0.1,0.1-0.2,0.3-0.2,0.5c0,0.1,0,0.2,0.1,0.3c0,0.1,0.1,0.2,0.2,0.3c0.1,0.1,0.2,0.1,0.3,0.2
		c0.1,0,0.2,0.1,0.3,0.1c0.1,0,0.2,0,0.3-0.1c0.1,0,0.2-0.1,0.3-0.2c0.1-0.1,0.2-0.1,0.3-0.2c-0.2-0.2-0.4-0.4-0.5-0.5
		C44.3,36.4,44.1,36.2,43.9,35.9 M44.2,35c0.2-0.1,0.4-0.3,0.5-0.4c0.1-0.1,0.2-0.2,0.2-0.4c0-0.1-0.1-0.3-0.2-0.3
		c-0.1-0.1-0.2-0.1-0.4-0.1c-0.2,0-0.3,0-0.4,0.1c-0.1,0.1-0.2,0.2-0.2,0.3c0,0.1,0,0.1,0.1,0.2c0,0.1,0.1,0.2,0.1,0.2
		C44,34.8,44.1,34.9,44.2,35"/>
	<path class="st4" d="M51.1,36.3h-0.9v1.4c0,0.2,0,0.3-0.1,0.4c-0.1,0.1-0.2,0.2-0.4,0.2c-0.1,0-0.3-0.1-0.4-0.2
		c-0.1-0.1-0.1-0.2-0.1-0.4v-3.7c0-0.2,0-0.4,0.1-0.5c0.1-0.1,0.3-0.1,0.5-0.1h1.3c0.4,0,0.7,0,0.9,0.1c0.2,0.1,0.4,0.1,0.5,0.3
		c0.1,0.1,0.3,0.3,0.3,0.5c0.1,0.2,0.1,0.4,0.1,0.6c0,0.5-0.2,0.9-0.5,1.1C52.2,36.1,51.7,36.3,51.1,36.3 M50.9,34h-0.7v1.5h0.7
		c0.2,0,0.4,0,0.6-0.1c0.2,0,0.3-0.1,0.4-0.2c0.1-0.1,0.1-0.3,0.1-0.4c0-0.2-0.1-0.4-0.2-0.5C51.6,34.1,51.3,34,50.9,34"/>
	<path class="st4" d="M54.6,36.9v0.8c0,0.2,0,0.3-0.1,0.4c-0.1,0.1-0.2,0.1-0.3,0.1c-0.1,0-0.2,0-0.3-0.1c-0.1-0.1-0.1-0.2-0.1-0.4
		v-2.5c0-0.4,0.1-0.6,0.4-0.6c0.2,0,0.3,0,0.3,0.1c0.1,0.1,0.1,0.2,0.1,0.4c0.1-0.2,0.2-0.3,0.3-0.4c0.1-0.1,0.3-0.1,0.5-0.1
		c0.2,0,0.4,0,0.6,0.1c0.2,0.1,0.3,0.2,0.3,0.4c0,0.1,0,0.2-0.1,0.3c-0.1,0.1-0.2,0.1-0.2,0.1c0,0-0.1,0-0.2-0.1
		c-0.1,0-0.2-0.1-0.3-0.1c-0.1,0-0.2,0-0.3,0.1c-0.1,0.1-0.1,0.2-0.2,0.3c0,0.1-0.1,0.3-0.1,0.5C54.6,36.4,54.6,36.7,54.6,36.9"/>
	<path class="st4" d="M59.8,36.4c0,0.3,0,0.5-0.1,0.7c-0.1,0.2-0.2,0.4-0.4,0.6c-0.2,0.2-0.3,0.3-0.6,0.4c-0.2,0.1-0.5,0.1-0.7,0.1
		c-0.3,0-0.5,0-0.7-0.1c-0.2-0.1-0.4-0.2-0.6-0.4c-0.2-0.2-0.3-0.4-0.4-0.6c-0.1-0.2-0.1-0.5-0.1-0.7c0-0.3,0-0.5,0.1-0.8
		c0.1-0.2,0.2-0.4,0.4-0.6c0.2-0.2,0.3-0.3,0.6-0.4c0.2-0.1,0.5-0.1,0.7-0.1c0.3,0,0.5,0,0.7,0.1c0.2,0.1,0.4,0.2,0.6,0.4
		c0.2,0.2,0.3,0.4,0.4,0.6C59.8,35.9,59.8,36.1,59.8,36.4 M58.9,36.4c0-0.4-0.1-0.7-0.2-0.9c-0.2-0.2-0.4-0.3-0.7-0.3
		c-0.2,0-0.3,0-0.5,0.1c-0.1,0.1-0.2,0.2-0.3,0.4c-0.1,0.2-0.1,0.4-0.1,0.6c0,0.2,0,0.4,0.1,0.6c0.1,0.2,0.2,0.3,0.3,0.4
		c0.1,0.1,0.3,0.1,0.5,0.1c0.3,0,0.5-0.1,0.7-0.3C58.8,37,58.9,36.8,58.9,36.4"/>
	<path class="st4" d="M63,37.7L63,37.7c-0.1,0-0.2,0.2-0.4,0.3c-0.1,0.1-0.2,0.2-0.4,0.2c-0.1,0-0.3,0.1-0.5,0.1
		c-0.2,0-0.4,0-0.6-0.1c-0.2-0.1-0.3-0.2-0.5-0.4c-0.1-0.2-0.2-0.4-0.3-0.6c-0.1-0.2-0.1-0.5-0.1-0.7c0-0.6,0.1-1,0.4-1.3
		c0.3-0.3,0.6-0.5,1.1-0.5c0.3,0,0.5,0,0.7,0.1c0.2,0.1,0.4,0.2,0.5,0.4v-1.3c0-0.2,0-0.3,0.1-0.4c0.1-0.1,0.2-0.1,0.3-0.1
		c0.1,0,0.2,0,0.3,0.1c0.1,0.1,0.1,0.2,0.1,0.4v4c0,0.2,0,0.3-0.1,0.4c-0.1,0.1-0.2,0.1-0.3,0.1c-0.1,0-0.2,0-0.3-0.1
		C63.1,38,63,37.9,63,37.7 M61.2,36.4c0,0.2,0,0.5,0.1,0.6c0.1,0.2,0.2,0.3,0.3,0.4c0.1,0.1,0.3,0.1,0.4,0.1c0.2,0,0.3,0,0.4-0.1
		c0.1-0.1,0.2-0.2,0.3-0.4c0.1-0.2,0.1-0.4,0.1-0.6c0-0.2,0-0.4-0.1-0.6c-0.1-0.2-0.2-0.3-0.3-0.4c-0.1-0.1-0.3-0.1-0.4-0.1
		c-0.2,0-0.3,0-0.4,0.1c-0.1,0.1-0.2,0.2-0.3,0.4C61.3,36,61.2,36.2,61.2,36.4"/>
	<path class="st4" d="M67.1,37.7v-0.1c-0.1,0.1-0.2,0.3-0.3,0.3c-0.1,0.1-0.2,0.2-0.4,0.2c-0.1,0-0.3,0.1-0.5,0.1
		c-0.2,0-0.4,0-0.6-0.1c-0.2-0.1-0.3-0.2-0.4-0.4c-0.1-0.2-0.2-0.5-0.2-0.8v-1.8c0-0.2,0-0.3,0.1-0.4c0.1-0.1,0.2-0.1,0.3-0.1
		c0.1,0,0.2,0,0.3,0.1c0.1,0.1,0.1,0.2,0.1,0.4v1.4c0,0.2,0,0.4,0.1,0.5c0,0.1,0.1,0.3,0.2,0.3c0.1,0.1,0.2,0.1,0.4,0.1
		c0.2,0,0.3,0,0.4-0.1c0.1-0.1,0.2-0.2,0.3-0.4c0.1-0.1,0.1-0.4,0.1-0.8v-1.1c0-0.2,0-0.3,0.1-0.4c0.1-0.1,0.2-0.1,0.3-0.1
		s0.2,0,0.3,0.1c0.1,0.1,0.1,0.2,0.1,0.4v2.6c0,0.2,0,0.3-0.1,0.4c-0.1,0.1-0.2,0.1-0.3,0.1s-0.2,0-0.3-0.1
		C67.2,38,67.1,37.9,67.1,37.7"/>
	<path class="st4" d="M72.1,37.1c0,0.1,0,0.2-0.1,0.4c-0.1,0.1-0.2,0.3-0.3,0.4c-0.1,0.1-0.3,0.2-0.5,0.3c-0.2,0.1-0.4,0.1-0.7,0.1
		c-0.6,0-1-0.2-1.3-0.5c-0.3-0.3-0.5-0.8-0.5-1.3c0-0.4,0.1-0.7,0.2-1c0.1-0.3,0.4-0.5,0.6-0.7c0.3-0.2,0.6-0.2,1-0.2
		c0.2,0,0.4,0,0.6,0.1c0.2,0.1,0.4,0.2,0.5,0.3c0.1,0.1,0.2,0.2,0.3,0.3c0.1,0.1,0.1,0.2,0.1,0.3c0,0.1,0,0.2-0.1,0.3
		C71.9,36,71.8,36,71.7,36c-0.1,0-0.1,0-0.2-0.1c0,0-0.1-0.1-0.2-0.2c-0.1-0.2-0.2-0.3-0.3-0.4c-0.1-0.1-0.3-0.1-0.5-0.1
		c-0.3,0-0.5,0.1-0.6,0.3c-0.2,0.2-0.2,0.5-0.2,0.9c0,0.2,0,0.3,0.1,0.5c0,0.1,0.1,0.3,0.2,0.4c0.1,0.1,0.2,0.2,0.3,0.2
		c0.1,0.1,0.2,0.1,0.4,0.1c0.2,0,0.3,0,0.5-0.1c0.1-0.1,0.2-0.2,0.3-0.4c0.1-0.1,0.1-0.2,0.2-0.2c0.1-0.1,0.1-0.1,0.2-0.1
		c0.1,0,0.2,0,0.3,0.1C72.1,36.9,72.1,37,72.1,37.1"/>
	<path class="st4" d="M73,34.6L73,34.6l0.1-0.5c0-0.1,0-0.3,0-0.3c0-0.1,0-0.2,0.1-0.2c0-0.1,0.1-0.1,0.2-0.2c0.1,0,0.1-0.1,0.2-0.1
		c0.1,0,0.2,0,0.3,0.1c0.1,0.1,0.1,0.1,0.1,0.2c0,0.1,0,0.2,0,0.4v0.6h0.3c0.1,0,0.2,0,0.3,0.1c0.1,0.1,0.1,0.1,0.1,0.2
		c0,0.1,0,0.2-0.1,0.3c-0.1,0-0.2,0.1-0.4,0.1H74V37c0,0.1,0,0.3,0,0.3c0,0.1,0,0.1,0.1,0.2c0,0,0.1,0.1,0.2,0.1c0.1,0,0.1,0,0.2,0
		c0.1,0,0.2,0,0.2,0c0.1,0,0.1,0,0.2,0.1s0.1,0.1,0.1,0.2c0,0.1-0.1,0.3-0.2,0.3s-0.4,0.1-0.7,0.1c-0.3,0-0.5,0-0.6-0.1
		c-0.1-0.1-0.2-0.2-0.3-0.4c0-0.2-0.1-0.4-0.1-0.7v-1.7h-0.1c-0.1,0-0.2,0-0.3-0.1c-0.1-0.1-0.1-0.1-0.1-0.2c0-0.1,0-0.2,0.1-0.2
		C72.7,34.7,72.8,34.6,73,34.6"/>
	<path class="st4" d="M75.8,34.1c-0.1,0-0.2,0-0.3-0.1c-0.1-0.1-0.1-0.2-0.1-0.3c0-0.1,0-0.2,0.1-0.3c0.1-0.1,0.2-0.1,0.3-0.1
		c0.1,0,0.2,0,0.3,0.1c0.1,0.1,0.1,0.2,0.1,0.3c0,0.1,0,0.2-0.1,0.3C76,34.1,75.9,34.1,75.8,34.1 M76.2,35.1v2.6
		c0,0.2,0,0.3-0.1,0.4c-0.1,0.1-0.2,0.1-0.3,0.1c-0.1,0-0.2,0-0.3-0.1c-0.1-0.1-0.1-0.2-0.1-0.4v-2.6c0-0.2,0-0.3,0.1-0.4
		c0.1-0.1,0.2-0.1,0.3-0.1c0.1,0,0.2,0,0.3,0.1C76.2,34.8,76.2,34.9,76.2,35.1"/>
	<path class="st4" d="M80.5,36.4c0,0.3,0,0.5-0.1,0.7c-0.1,0.2-0.2,0.4-0.4,0.6c-0.2,0.2-0.3,0.3-0.6,0.4c-0.2,0.1-0.5,0.1-0.7,0.1
		c-0.3,0-0.5,0-0.7-0.1c-0.2-0.1-0.4-0.2-0.6-0.4c-0.2-0.2-0.3-0.4-0.4-0.6c-0.1-0.2-0.1-0.5-0.1-0.7c0-0.3,0-0.5,0.1-0.8
		c0.1-0.2,0.2-0.4,0.4-0.6c0.2-0.2,0.3-0.3,0.6-0.4c0.2-0.1,0.5-0.1,0.7-0.1c0.3,0,0.5,0,0.7,0.1c0.2,0.1,0.4,0.2,0.6,0.4
		c0.2,0.2,0.3,0.4,0.4,0.6C80.5,35.9,80.5,36.1,80.5,36.4 M79.6,36.4c0-0.4-0.1-0.7-0.2-0.9s-0.4-0.3-0.7-0.3c-0.2,0-0.3,0-0.5,0.1
		c-0.1,0.1-0.2,0.2-0.3,0.4c-0.1,0.2-0.1,0.4-0.1,0.6c0,0.2,0,0.4,0.1,0.6c0.1,0.2,0.2,0.3,0.3,0.4c0.1,0.1,0.3,0.1,0.5,0.1
		c0.3,0,0.5-0.1,0.7-0.3C79.5,37,79.6,36.8,79.6,36.4"/>
	<path class="st4" d="M82.1,35.1v0.1c0.2-0.2,0.3-0.4,0.5-0.5c0.2-0.1,0.4-0.1,0.7-0.1c0.2,0,0.5,0.1,0.6,0.2
		c0.2,0.1,0.3,0.3,0.4,0.4c0.1,0.1,0.1,0.2,0.1,0.4c0,0.1,0,0.3,0,0.5v1.7c0,0.2,0,0.3-0.1,0.4c-0.1,0.1-0.2,0.1-0.3,0.1
		c-0.1,0-0.2,0-0.3-0.1c-0.1-0.1-0.1-0.2-0.1-0.4v-1.5c0-0.3,0-0.5-0.1-0.7c-0.1-0.2-0.2-0.2-0.5-0.2c-0.2,0-0.3,0-0.4,0.1
		c-0.1,0.1-0.2,0.2-0.3,0.4c0,0.1-0.1,0.4-0.1,0.8v1.1c0,0.2,0,0.3-0.1,0.4s-0.2,0.1-0.3,0.1c-0.1,0-0.2,0-0.3-0.1
		c-0.1-0.1-0.1-0.2-0.1-0.4v-2.6c0-0.2,0-0.3,0.1-0.4c0.1-0.1,0.2-0.1,0.3-0.1c0.1,0,0.2,0,0.2,0.1c0.1,0,0.1,0.1,0.2,0.2
		C82.1,34.9,82.1,35,82.1,35.1"/>
	<path class="st4" d="M88.7,37.4L88,34.3v3.4c0,0.2,0,0.3-0.1,0.4c-0.1,0.1-0.2,0.1-0.3,0.1c-0.1,0-0.2,0-0.3-0.1
		c-0.1-0.1-0.1-0.2-0.1-0.4v-3.8c0-0.2,0.1-0.4,0.2-0.4c0.1-0.1,0.3-0.1,0.4-0.1H88c0.2,0,0.3,0,0.4,0c0.1,0,0.1,0.1,0.2,0.2
		c0,0.1,0.1,0.2,0.1,0.4l0.7,2.7l0.7-2.7c0.1-0.2,0.1-0.3,0.1-0.4c0-0.1,0.1-0.1,0.2-0.2c0.1,0,0.2,0,0.4,0h0.3c0.2,0,0.3,0,0.4,0.1
		c0.1,0.1,0.2,0.2,0.2,0.4v3.8c0,0.2,0,0.3-0.1,0.4c-0.1,0.1-0.2,0.1-0.3,0.1c-0.1,0-0.2,0-0.3-0.1c-0.1-0.1-0.1-0.2-0.1-0.4v-3.4
		l-0.8,3.1c-0.1,0.2-0.1,0.3-0.1,0.4c0,0.1-0.1,0.2-0.2,0.3c-0.1,0.1-0.2,0.1-0.4,0.1c-0.1,0-0.2,0-0.3-0.1C89,38.1,89,38,88.9,38
		c0-0.1-0.1-0.2-0.1-0.3C88.8,37.6,88.8,37.5,88.7,37.4"/>
	<path class="st4" d="M96.1,36.4c0,0.3,0,0.5-0.1,0.7c-0.1,0.2-0.2,0.4-0.4,0.6c-0.2,0.2-0.3,0.3-0.6,0.4c-0.2,0.1-0.5,0.1-0.7,0.1
		c-0.3,0-0.5,0-0.7-0.1c-0.2-0.1-0.4-0.2-0.6-0.4c-0.2-0.2-0.3-0.4-0.4-0.6c-0.1-0.2-0.1-0.5-0.1-0.7c0-0.3,0-0.5,0.1-0.8
		c0.1-0.2,0.2-0.4,0.4-0.6c0.2-0.2,0.3-0.3,0.6-0.4c0.2-0.1,0.5-0.1,0.7-0.1c0.3,0,0.5,0,0.7,0.1c0.2,0.1,0.4,0.2,0.6,0.4
		c0.2,0.2,0.3,0.4,0.4,0.6C96,35.9,96.1,36.1,96.1,36.4 M95.2,36.4c0-0.4-0.1-0.7-0.2-0.9c-0.2-0.2-0.4-0.3-0.7-0.3
		c-0.2,0-0.3,0-0.5,0.1c-0.1,0.1-0.2,0.2-0.3,0.4c-0.1,0.2-0.1,0.4-0.1,0.6c0,0.2,0,0.4,0.1,0.6c0.1,0.2,0.2,0.3,0.3,0.4
		c0.1,0.1,0.3,0.1,0.5,0.1c0.3,0,0.5-0.1,0.7-0.3C95.1,37,95.2,36.8,95.2,36.4"/>
	<path class="st4" d="M97.6,35.1v0.1c0.2-0.2,0.3-0.4,0.5-0.5c0.2-0.1,0.4-0.1,0.7-0.1c0.2,0,0.5,0.1,0.6,0.2
		c0.2,0.1,0.3,0.3,0.4,0.4c0.1,0.1,0.1,0.2,0.1,0.4c0,0.1,0,0.3,0,0.5v1.7c0,0.2,0,0.3-0.1,0.4c-0.1,0.1-0.2,0.1-0.3,0.1
		c-0.1,0-0.2,0-0.3-0.1c-0.1-0.1-0.1-0.2-0.1-0.4v-1.5c0-0.3,0-0.5-0.1-0.7c-0.1-0.2-0.2-0.2-0.5-0.2c-0.2,0-0.3,0-0.4,0.1
		c-0.1,0.1-0.2,0.2-0.3,0.4c0,0.1-0.1,0.4-0.1,0.8v1.1c0,0.2,0,0.3-0.1,0.4c-0.1,0.1-0.2,0.1-0.3,0.1c-0.1,0-0.2,0-0.3-0.1
		c-0.1-0.1-0.1-0.2-0.1-0.4v-2.6c0-0.2,0-0.3,0.1-0.4c0.1-0.1,0.2-0.1,0.3-0.1c0.1,0,0.2,0,0.2,0.1c0.1,0,0.1,0.1,0.2,0.2
		C97.6,34.9,97.6,35,97.6,35.1"/>
	<path class="st4" d="M101.4,34.1c-0.1,0-0.2,0-0.3-0.1c-0.1-0.1-0.1-0.2-0.1-0.3c0-0.1,0-0.2,0.1-0.3c0.1-0.1,0.2-0.1,0.3-0.1
		c0.1,0,0.2,0,0.3,0.1c0.1,0.1,0.1,0.2,0.1,0.3c0,0.1,0,0.2-0.1,0.3C101.6,34.1,101.5,34.1,101.4,34.1 M101.8,35.1v2.6
		c0,0.2,0,0.3-0.1,0.4c-0.1,0.1-0.2,0.1-0.3,0.1c-0.1,0-0.2,0-0.3-0.1c-0.1-0.1-0.1-0.2-0.1-0.4v-2.6c0-0.2,0-0.3,0.1-0.4
		c0.1-0.1,0.2-0.1,0.3-0.1c0.1,0,0.2,0,0.3,0.1S101.8,34.9,101.8,35.1"/>
	<path class="st4" d="M102.8,34.6L102.8,34.6l0.1-0.5c0-0.1,0-0.3,0-0.3c0-0.1,0-0.2,0.1-0.2c0-0.1,0.1-0.1,0.2-0.2
		c0.1,0,0.1-0.1,0.2-0.1c0.1,0,0.2,0,0.3,0.1c0.1,0.1,0.1,0.1,0.1,0.2c0,0.1,0,0.2,0,0.4v0.6h0.3c0.1,0,0.2,0,0.3,0.1
		c0.1,0.1,0.1,0.1,0.1,0.2c0,0.1,0,0.2-0.1,0.3c-0.1,0-0.2,0.1-0.4,0.1h-0.2V37c0,0.1,0,0.3,0,0.3c0,0.1,0,0.1,0.1,0.2
		c0,0,0.1,0.1,0.2,0.1c0.1,0,0.1,0,0.2,0c0.1,0,0.2,0,0.2,0c0.1,0,0.1,0,0.2,0.1c0.1,0.1,0.1,0.1,0.1,0.2c0,0.1-0.1,0.3-0.2,0.3
		c-0.2,0.1-0.4,0.1-0.7,0.1c-0.3,0-0.5,0-0.6-0.1c-0.1-0.1-0.2-0.2-0.3-0.4c0-0.2-0.1-0.4-0.1-0.7v-1.7h-0.1c-0.1,0-0.2,0-0.3-0.1
		c-0.1-0.1-0.1-0.1-0.1-0.2c0-0.1,0-0.2,0.1-0.2C102.5,34.7,102.7,34.6,102.8,34.6"/>
	<path class="st4" d="M108.5,36.4c0,0.3,0,0.5-0.1,0.7c-0.1,0.2-0.2,0.4-0.4,0.6c-0.2,0.2-0.3,0.3-0.6,0.4c-0.2,0.1-0.5,0.1-0.7,0.1
		c-0.3,0-0.5,0-0.7-0.1c-0.2-0.1-0.4-0.2-0.6-0.4c-0.2-0.2-0.3-0.4-0.4-0.6c-0.1-0.2-0.1-0.5-0.1-0.7c0-0.3,0-0.5,0.1-0.8
		c0.1-0.2,0.2-0.4,0.4-0.6c0.2-0.2,0.3-0.3,0.6-0.4c0.2-0.1,0.5-0.1,0.7-0.1c0.3,0,0.5,0,0.7,0.1c0.2,0.1,0.4,0.2,0.6,0.4
		c0.2,0.2,0.3,0.4,0.4,0.6C108.5,35.9,108.5,36.1,108.5,36.4 M107.6,36.4c0-0.4-0.1-0.7-0.2-0.9c-0.2-0.2-0.4-0.3-0.7-0.3
		c-0.2,0-0.3,0-0.5,0.1c-0.1,0.1-0.2,0.2-0.3,0.4c-0.1,0.2-0.1,0.4-0.1,0.6c0,0.2,0,0.4,0.1,0.6c0.1,0.2,0.2,0.3,0.3,0.4
		c0.1,0.1,0.3,0.1,0.5,0.1c0.3,0,0.5-0.1,0.7-0.3C107.5,37,107.6,36.8,107.6,36.4"/>
	<path class="st4" d="M110.1,36.9v0.8c0,0.2,0,0.3-0.1,0.4c-0.1,0.1-0.2,0.1-0.3,0.1c-0.1,0-0.2,0-0.3-0.1c-0.1-0.1-0.1-0.2-0.1-0.4
		v-2.5c0-0.4,0.1-0.6,0.4-0.6c0.2,0,0.3,0,0.3,0.1c0.1,0.1,0.1,0.2,0.1,0.4c0.1-0.2,0.2-0.3,0.3-0.4c0.1-0.1,0.3-0.1,0.5-0.1
		c0.2,0,0.4,0,0.6,0.1c0.2,0.1,0.3,0.2,0.3,0.4c0,0.1,0,0.2-0.1,0.3c-0.1,0.1-0.2,0.1-0.2,0.1c0,0-0.1,0-0.2-0.1
		c-0.1,0-0.2-0.1-0.3-0.1c-0.1,0-0.2,0-0.3,0.1c-0.1,0.1-0.1,0.2-0.2,0.3c0,0.1-0.1,0.3-0.1,0.5C110.1,36.4,110.1,36.7,110.1,36.9"
		/>
	<path class="st4" d="M112.7,34.1c-0.1,0-0.2,0-0.3-0.1c-0.1-0.1-0.1-0.2-0.1-0.3c0-0.1,0-0.2,0.1-0.3c0.1-0.1,0.2-0.1,0.3-0.1
		c0.1,0,0.2,0,0.3,0.1c0.1,0.1,0.1,0.2,0.1,0.3c0,0.1,0,0.2-0.1,0.3C112.9,34.1,112.8,34.1,112.7,34.1 M113.1,35.1v2.6
		c0,0.2,0,0.3-0.1,0.4c-0.1,0.1-0.2,0.1-0.3,0.1c-0.1,0-0.2,0-0.3-0.1c-0.1-0.1-0.1-0.2-0.1-0.4v-2.6c0-0.2,0-0.3,0.1-0.4
		c0.1-0.1,0.2-0.1,0.3-0.1c0.1,0,0.2,0,0.3,0.1C113.1,34.8,113.1,34.9,113.1,35.1"/>
	<path class="st4" d="M114.9,35.1v0.1c0.2-0.2,0.3-0.4,0.5-0.5c0.2-0.1,0.4-0.1,0.7-0.1c0.2,0,0.5,0.1,0.6,0.2
		c0.2,0.1,0.3,0.3,0.4,0.4c0.1,0.1,0.1,0.2,0.1,0.4c0,0.1,0,0.3,0,0.5v1.7c0,0.2,0,0.3-0.1,0.4c-0.1,0.1-0.2,0.1-0.3,0.1
		c-0.1,0-0.2,0-0.3-0.1c-0.1-0.1-0.1-0.2-0.1-0.4v-1.5c0-0.3,0-0.5-0.1-0.7c-0.1-0.2-0.2-0.2-0.5-0.2c-0.2,0-0.3,0-0.4,0.1
		c-0.1,0.1-0.2,0.2-0.3,0.4c0,0.1-0.1,0.4-0.1,0.8v1.1c0,0.2,0,0.3-0.1,0.4c-0.1,0.1-0.2,0.1-0.3,0.1c-0.1,0-0.2,0-0.3-0.1
		c-0.1-0.1-0.1-0.2-0.1-0.4v-2.6c0-0.2,0-0.3,0.1-0.4c0.1-0.1,0.2-0.1,0.3-0.1c0.1,0,0.2,0,0.2,0.1c0.1,0,0.1,0.1,0.2,0.2
		C114.9,34.9,114.9,35,114.9,35.1"/>
	<path class="st4" d="M121.5,35.2v2.6c0,0.3,0,0.6-0.1,0.8c-0.1,0.2-0.2,0.4-0.3,0.5c-0.1,0.1-0.3,0.2-0.6,0.3
		c-0.2,0.1-0.5,0.1-0.9,0.1c-0.3,0-0.6,0-0.8-0.1c-0.2-0.1-0.4-0.2-0.6-0.3c-0.1-0.1-0.2-0.3-0.2-0.4c0-0.1,0-0.2,0.1-0.3
		c0.1-0.1,0.2-0.1,0.3-0.1c0.1,0,0.2,0.1,0.3,0.2c0,0.1,0.1,0.1,0.2,0.2c0.1,0.1,0.1,0.1,0.2,0.2c0.1,0,0.1,0.1,0.2,0.1
		c0.1,0,0.2,0,0.3,0c0.2,0,0.4,0,0.5-0.1c0.1-0.1,0.2-0.2,0.3-0.3c0.1-0.1,0.1-0.2,0.1-0.4c0-0.1,0-0.3,0-0.6
		c-0.1,0.2-0.3,0.3-0.5,0.4c-0.2,0.1-0.4,0.2-0.7,0.2c-0.3,0-0.6-0.1-0.8-0.2c-0.2-0.2-0.4-0.4-0.5-0.6c-0.1-0.3-0.2-0.6-0.2-1
		c0-0.3,0-0.5,0.1-0.7c0.1-0.2,0.2-0.4,0.3-0.6c0.1-0.2,0.3-0.3,0.5-0.3c0.2-0.1,0.4-0.1,0.6-0.1c0.3,0,0.5,0,0.7,0.1
		c0.2,0.1,0.4,0.3,0.5,0.5v-0.1c0-0.2,0-0.3,0.1-0.4c0.1-0.1,0.2-0.1,0.3-0.1c0.2,0,0.3,0.1,0.3,0.2C121.4,34.8,121.5,35,121.5,35.2
		 M118.9,36.4c0,0.4,0.1,0.6,0.2,0.8c0.2,0.2,0.4,0.3,0.6,0.3c0.2,0,0.3,0,0.4-0.1c0.1-0.1,0.2-0.2,0.3-0.4c0.1-0.2,0.1-0.4,0.1-0.6
		c0-0.4-0.1-0.7-0.2-0.9c-0.2-0.2-0.4-0.3-0.6-0.3c-0.3,0-0.5,0.1-0.6,0.3C118.9,35.7,118.9,36,118.9,36.4"/>
	<path class="st4" d="M127.3,34.1h-1.1v3.5c0,0.2,0,0.4-0.1,0.5c-0.1,0.1-0.2,0.1-0.4,0.1c-0.1,0-0.3,0-0.4-0.1
		c-0.1-0.1-0.1-0.2-0.1-0.5v-3.5h-1.1c-0.2,0-0.3,0-0.4-0.1c-0.1-0.1-0.1-0.2-0.1-0.3c0-0.1,0-0.2,0.1-0.3c0.1-0.1,0.2-0.1,0.4-0.1
		h3.1c0.2,0,0.3,0,0.4,0.1c0.1,0.1,0.1,0.2,0.1,0.3c0,0.1,0,0.2-0.1,0.3C127.6,34.1,127.5,34.1,127.3,34.1"/>
	<path class="st4" d="M130.4,36.6h-1.8c0,0.2,0,0.4,0.1,0.5c0.1,0.2,0.2,0.3,0.3,0.4c0.1,0.1,0.3,0.1,0.4,0.1c0.1,0,0.2,0,0.3,0
		c0.1,0,0.2-0.1,0.3-0.1c0.1-0.1,0.2-0.1,0.2-0.2c0.1-0.1,0.2-0.1,0.3-0.3c0,0,0.1-0.1,0.2-0.1c0.1,0,0.2,0,0.2,0.1
		c0.1,0.1,0.1,0.1,0.1,0.2c0,0.1,0,0.2-0.1,0.3c-0.1,0.1-0.2,0.2-0.3,0.3c-0.1,0.1-0.3,0.2-0.5,0.3c-0.2,0.1-0.4,0.1-0.7,0.1
		c-0.6,0-1-0.2-1.4-0.5c-0.3-0.3-0.5-0.8-0.5-1.3c0-0.3,0-0.5,0.1-0.7c0.1-0.2,0.2-0.4,0.3-0.6c0.2-0.2,0.3-0.3,0.6-0.4
		c0.2-0.1,0.5-0.1,0.7-0.1c0.4,0,0.7,0.1,0.9,0.2c0.3,0.1,0.4,0.3,0.6,0.6c0.1,0.2,0.2,0.5,0.2,0.7c0,0.2-0.1,0.4-0.2,0.4
		C130.8,36.6,130.7,36.6,130.4,36.6 M128.7,36.1h1.6c0-0.3-0.1-0.5-0.3-0.7c-0.1-0.2-0.3-0.2-0.6-0.2c-0.2,0-0.4,0.1-0.6,0.2
		C128.8,35.6,128.7,35.8,128.7,36.1"/>
	<path class="st4" d="M135.2,37.1c0,0.1,0,0.2-0.1,0.4c-0.1,0.1-0.2,0.3-0.3,0.4c-0.1,0.1-0.3,0.2-0.5,0.3c-0.2,0.1-0.4,0.1-0.7,0.1
		c-0.6,0-1-0.2-1.3-0.5c-0.3-0.3-0.5-0.8-0.5-1.3c0-0.4,0.1-0.7,0.2-1c0.1-0.3,0.4-0.5,0.6-0.7c0.3-0.2,0.6-0.2,1-0.2
		c0.2,0,0.4,0,0.6,0.1c0.2,0.1,0.4,0.2,0.5,0.3c0.1,0.1,0.2,0.2,0.3,0.3c0.1,0.1,0.1,0.2,0.1,0.3c0,0.1,0,0.2-0.1,0.3
		c-0.1,0.1-0.2,0.1-0.3,0.1c-0.1,0-0.1,0-0.2-0.1c0,0-0.1-0.1-0.2-0.2c-0.1-0.2-0.2-0.3-0.3-0.4c-0.1-0.1-0.3-0.1-0.5-0.1
		c-0.3,0-0.5,0.1-0.6,0.3c-0.2,0.2-0.2,0.5-0.2,0.9c0,0.2,0,0.3,0.1,0.5c0,0.1,0.1,0.3,0.2,0.4c0.1,0.1,0.2,0.2,0.3,0.2
		c0.1,0.1,0.2,0.1,0.4,0.1c0.2,0,0.3,0,0.5-0.1c0.1-0.1,0.2-0.2,0.3-0.4c0.1-0.1,0.1-0.2,0.2-0.2c0.1-0.1,0.1-0.1,0.2-0.1
		c0.1,0,0.2,0,0.3,0.1C135.1,36.9,135.2,37,135.2,37.1"/>
	<path class="st4" d="M136.7,33.8v1.3c0.1-0.1,0.2-0.2,0.3-0.3c0.1-0.1,0.2-0.1,0.4-0.2c0.1,0,0.3-0.1,0.4-0.1c0.2,0,0.4,0,0.6,0.1
		c0.2,0.1,0.3,0.2,0.4,0.4c0.1,0.1,0.1,0.2,0.1,0.4c0,0.1,0,0.3,0,0.5v1.7c0,0.2,0,0.3-0.1,0.4c-0.1,0.1-0.2,0.1-0.3,0.1
		c-0.3,0-0.4-0.2-0.4-0.6v-1.5c0-0.3,0-0.5-0.1-0.7c-0.1-0.2-0.2-0.2-0.5-0.2c-0.2,0-0.3,0-0.4,0.1c-0.1,0.1-0.2,0.2-0.3,0.4
		c0,0.1-0.1,0.4-0.1,0.7v1.2c0,0.2,0,0.3-0.1,0.4c-0.1,0.1-0.2,0.1-0.3,0.1c-0.3,0-0.4-0.2-0.4-0.6v-3.9c0-0.2,0-0.3,0.1-0.4
		c0.1-0.1,0.2-0.1,0.3-0.1c0.1,0,0.3,0,0.3,0.1C136.6,33.4,136.7,33.6,136.7,33.8"/>
	<path class="st4" d="M140.7,35.1v0.1c0.2-0.2,0.3-0.4,0.5-0.5c0.2-0.1,0.4-0.1,0.7-0.1c0.2,0,0.5,0.1,0.6,0.2
		c0.2,0.1,0.3,0.3,0.4,0.4c0.1,0.1,0.1,0.2,0.1,0.4c0,0.1,0,0.3,0,0.5v1.7c0,0.2,0,0.3-0.1,0.4c-0.1,0.1-0.2,0.1-0.3,0.1
		c-0.1,0-0.2,0-0.3-0.1c-0.1-0.1-0.1-0.2-0.1-0.4v-1.5c0-0.3,0-0.5-0.1-0.7c-0.1-0.2-0.2-0.2-0.5-0.2c-0.2,0-0.3,0-0.4,0.1
		c-0.1,0.1-0.2,0.2-0.3,0.4c0,0.1-0.1,0.4-0.1,0.8v1.1c0,0.2,0,0.3-0.1,0.4c-0.1,0.1-0.2,0.1-0.3,0.1c-0.1,0-0.2,0-0.3-0.1
		c-0.1-0.1-0.1-0.2-0.1-0.4v-2.6c0-0.2,0-0.3,0.1-0.4c0.1-0.1,0.2-0.1,0.3-0.1c0.1,0,0.2,0,0.2,0.1c0.1,0,0.1,0.1,0.2,0.2
		C140.7,34.9,140.7,35,140.7,35.1"/>
	<path class="st4" d="M147.4,36.4c0,0.3,0,0.5-0.1,0.7c-0.1,0.2-0.2,0.4-0.4,0.6c-0.2,0.2-0.3,0.3-0.6,0.4c-0.2,0.1-0.5,0.1-0.7,0.1
		c-0.3,0-0.5,0-0.7-0.1c-0.2-0.1-0.4-0.2-0.6-0.4c-0.2-0.2-0.3-0.4-0.4-0.6c-0.1-0.2-0.1-0.5-0.1-0.7c0-0.3,0-0.5,0.1-0.8
		c0.1-0.2,0.2-0.4,0.4-0.6c0.2-0.2,0.3-0.3,0.6-0.4c0.2-0.1,0.5-0.1,0.7-0.1c0.3,0,0.5,0,0.7,0.1c0.2,0.1,0.4,0.2,0.6,0.4
		c0.2,0.2,0.3,0.4,0.4,0.6C147.3,35.9,147.4,36.1,147.4,36.4 M146.5,36.4c0-0.4-0.1-0.7-0.2-0.9c-0.2-0.2-0.4-0.3-0.7-0.3
		c-0.2,0-0.3,0-0.5,0.1c-0.1,0.1-0.2,0.2-0.3,0.4c-0.1,0.2-0.1,0.4-0.1,0.6c0,0.2,0,0.4,0.1,0.6c0.1,0.2,0.2,0.3,0.3,0.4
		c0.1,0.1,0.3,0.1,0.5,0.1c0.3,0,0.5-0.1,0.7-0.3C146.4,37,146.5,36.8,146.5,36.4"/>
	<path class="st4" d="M148.1,37.7v-3.9c0-0.2,0-0.3,0.1-0.4c0.1-0.1,0.2-0.1,0.3-0.1c0.1,0,0.2,0,0.3,0.1c0.1,0.1,0.1,0.2,0.1,0.4
		v3.9c0,0.2,0,0.3-0.1,0.4c-0.1,0.1-0.2,0.1-0.3,0.1c-0.1,0-0.2,0-0.3-0.1C148.1,38,148.1,37.9,148.1,37.7"/>
	<path class="st4" d="M153.3,36.4c0,0.3,0,0.5-0.1,0.7c-0.1,0.2-0.2,0.4-0.4,0.6c-0.2,0.2-0.3,0.3-0.6,0.4c-0.2,0.1-0.5,0.1-0.7,0.1
		c-0.3,0-0.5,0-0.7-0.1c-0.2-0.1-0.4-0.2-0.6-0.4c-0.2-0.2-0.3-0.4-0.4-0.6c-0.1-0.2-0.1-0.5-0.1-0.7c0-0.3,0-0.5,0.1-0.8
		c0.1-0.2,0.2-0.4,0.4-0.6c0.2-0.2,0.3-0.3,0.6-0.4c0.2-0.1,0.5-0.1,0.7-0.1c0.3,0,0.5,0,0.7,0.1c0.2,0.1,0.4,0.2,0.6,0.4
		c0.2,0.2,0.3,0.4,0.4,0.6C153.3,35.9,153.3,36.1,153.3,36.4 M152.4,36.4c0-0.4-0.1-0.7-0.2-0.9c-0.2-0.2-0.4-0.3-0.7-0.3
		c-0.2,0-0.3,0-0.5,0.1c-0.1,0.1-0.2,0.2-0.3,0.4c-0.1,0.2-0.1,0.4-0.1,0.6c0,0.2,0,0.4,0.1,0.6c0.1,0.2,0.2,0.3,0.3,0.4
		c0.1,0.1,0.3,0.1,0.5,0.1c0.3,0,0.5-0.1,0.7-0.3C152.3,37,152.4,36.8,152.4,36.4"/>
	<path class="st4" d="M157.4,35.2v2.6c0,0.3,0,0.6-0.1,0.8c-0.1,0.2-0.2,0.4-0.3,0.5c-0.1,0.1-0.3,0.2-0.6,0.3
		c-0.2,0.1-0.5,0.1-0.9,0.1c-0.3,0-0.6,0-0.8-0.1c-0.2-0.1-0.4-0.2-0.6-0.3c-0.1-0.1-0.2-0.3-0.2-0.4c0-0.1,0-0.2,0.1-0.3
		c0.1-0.1,0.2-0.1,0.3-0.1c0.1,0,0.2,0.1,0.3,0.2c0,0.1,0.1,0.1,0.2,0.2c0.1,0.1,0.1,0.1,0.2,0.2c0.1,0,0.1,0.1,0.2,0.1
		c0.1,0,0.2,0,0.3,0c0.2,0,0.4,0,0.5-0.1c0.1-0.1,0.2-0.2,0.3-0.3c0.1-0.1,0.1-0.2,0.1-0.4c0-0.1,0-0.3,0-0.6
		c-0.1,0.2-0.3,0.3-0.5,0.4c-0.2,0.1-0.4,0.2-0.7,0.2c-0.3,0-0.6-0.1-0.8-0.2c-0.2-0.2-0.4-0.4-0.5-0.6c-0.1-0.3-0.2-0.6-0.2-1
		c0-0.3,0-0.5,0.1-0.7c0.1-0.2,0.2-0.4,0.3-0.6c0.1-0.2,0.3-0.3,0.5-0.3c0.2-0.1,0.4-0.1,0.6-0.1c0.3,0,0.5,0,0.7,0.1
		c0.2,0.1,0.4,0.3,0.5,0.5v-0.1c0-0.2,0-0.3,0.1-0.4c0.1-0.1,0.2-0.1,0.3-0.1c0.2,0,0.3,0.1,0.3,0.2C157.3,34.8,157.4,35,157.4,35.2
		 M154.7,36.4c0,0.4,0.1,0.6,0.2,0.8c0.2,0.2,0.4,0.3,0.6,0.3c0.2,0,0.3,0,0.4-0.1c0.1-0.1,0.2-0.2,0.3-0.4c0.1-0.2,0.1-0.4,0.1-0.6
		c0-0.4-0.1-0.7-0.2-0.9c-0.2-0.2-0.4-0.3-0.6-0.3c-0.3,0-0.5,0.1-0.6,0.3C154.8,35.7,154.7,36,154.7,36.4"/>
	<path class="st4" d="M158.7,34.1c-0.1,0-0.2,0-0.3-0.1c-0.1-0.1-0.1-0.2-0.1-0.3c0-0.1,0-0.2,0.1-0.3c0.1-0.1,0.2-0.1,0.3-0.1
		c0.1,0,0.2,0,0.3,0.1c0.1,0.1,0.1,0.2,0.1,0.3c0,0.1,0,0.2-0.1,0.3C159,34.1,158.9,34.1,158.7,34.1 M159.2,35.1v2.6
		c0,0.2,0,0.3-0.1,0.4c-0.1,0.1-0.2,0.1-0.3,0.1c-0.1,0-0.2,0-0.3-0.1c-0.1-0.1-0.1-0.2-0.1-0.4v-2.6c0-0.2,0-0.3,0.1-0.4
		c0.1-0.1,0.2-0.1,0.3-0.1c0.1,0,0.2,0,0.3,0.1S159.2,34.9,159.2,35.1"/>
	<path class="st4" d="M162.6,36.6h-1.8c0,0.2,0,0.4,0.1,0.5c0.1,0.2,0.2,0.3,0.3,0.4c0.1,0.1,0.3,0.1,0.4,0.1c0.1,0,0.2,0,0.3,0
		c0.1,0,0.2-0.1,0.3-0.1c0.1-0.1,0.2-0.1,0.2-0.2c0.1-0.1,0.2-0.1,0.3-0.3c0,0,0.1-0.1,0.2-0.1c0.1,0,0.2,0,0.2,0.1
		c0.1,0.1,0.1,0.1,0.1,0.2c0,0.1,0,0.2-0.1,0.3c-0.1,0.1-0.2,0.2-0.3,0.3c-0.1,0.1-0.3,0.2-0.5,0.3c-0.2,0.1-0.4,0.1-0.7,0.1
		c-0.6,0-1-0.2-1.4-0.5c-0.3-0.3-0.5-0.8-0.5-1.3c0-0.3,0-0.5,0.1-0.7c0.1-0.2,0.2-0.4,0.3-0.6c0.2-0.2,0.3-0.3,0.6-0.4
		c0.2-0.1,0.5-0.1,0.7-0.1c0.4,0,0.7,0.1,0.9,0.2c0.3,0.1,0.4,0.3,0.6,0.6c0.1,0.2,0.2,0.5,0.2,0.7c0,0.2-0.1,0.4-0.2,0.4
		C163.1,36.6,162.9,36.6,162.6,36.6 M160.9,36.1h1.6c0-0.3-0.1-0.5-0.3-0.7c-0.1-0.2-0.3-0.2-0.6-0.2c-0.2,0-0.4,0.1-0.6,0.2
		C161,35.6,160.9,35.8,160.9,36.1"/>
	<path class="st4" d="M167.1,37.1c0,0.2-0.1,0.5-0.2,0.6c-0.1,0.2-0.3,0.3-0.5,0.4c-0.2,0.1-0.5,0.1-0.9,0.1c-0.3,0-0.6,0-0.8-0.1
		c-0.2-0.1-0.4-0.2-0.5-0.4c-0.1-0.1-0.2-0.3-0.2-0.4c0-0.1,0-0.2,0.1-0.3c0.1-0.1,0.2-0.1,0.3-0.1c0.1,0,0.2,0,0.2,0.1
		c0.1,0,0.1,0.1,0.1,0.2c0.1,0.2,0.2,0.3,0.3,0.4c0.1,0.1,0.3,0.1,0.5,0.1c0.2,0,0.3,0,0.4-0.1c0.1-0.1,0.2-0.2,0.2-0.3
		c0-0.2-0.1-0.3-0.2-0.3c-0.1-0.1-0.3-0.1-0.6-0.2c-0.3-0.1-0.6-0.2-0.8-0.2c-0.2-0.1-0.4-0.2-0.5-0.3c-0.1-0.1-0.2-0.3-0.2-0.5
		c0-0.2,0.1-0.4,0.2-0.5c0.1-0.2,0.3-0.3,0.5-0.4c0.2-0.1,0.5-0.1,0.8-0.1c0.2,0,0.4,0,0.6,0.1c0.2,0,0.3,0.1,0.5,0.2
		c0.1,0.1,0.2,0.2,0.3,0.3c0.1,0.1,0.1,0.2,0.1,0.3c0,0.1,0,0.2-0.1,0.3c-0.1,0.1-0.2,0.1-0.3,0.1c-0.1,0-0.2,0-0.2-0.1
		s-0.1-0.1-0.2-0.2c-0.1-0.1-0.1-0.2-0.2-0.2c-0.1-0.1-0.2-0.1-0.4-0.1c-0.2,0-0.3,0-0.4,0.1c-0.1,0.1-0.2,0.2-0.2,0.3
		c0,0.1,0,0.2,0.1,0.2c0.1,0.1,0.2,0.1,0.3,0.2c0.1,0,0.3,0.1,0.6,0.1c0.3,0.1,0.5,0.2,0.7,0.2c0.2,0.1,0.3,0.2,0.4,0.3
		C167,36.7,167.1,36.9,167.1,37.1"/>
</g>
</svg>
